<svg id="Layer_1" data-name="Layer 1" xmlns="http://www.w3.org/2000/svg" viewBox="0 0 100 100"><defs><style>.cls-1{fill:#95928c;}.cls-2{fill:#f0e9dc;}.cls-3{fill:#4f5869;}</style></defs><title>ACTIVITIES</title><rect class="cls-1" x="10.95" y="40.98" width="78.1" height="35.58"/><polyline class="cls-2" points="72.17 41.94 92.48 41.94 92.48 46.1 70.52 46.1"/><rect class="cls-2" x="75.93" y="71.7" width="16.55" height="4.86"/><path class="cls-2" d="M75.28,46.1h6.86a0,0,0,0,1,0,0v2.71a1.68,1.68,0,0,1-1.68,1.68H77a1.68,1.68,0,0,1-1.68-1.68V46.1A0,0,0,0,1,75.28,46.1Z"/><path class="cls-2" d="M75.28,67.32h6.86a0,0,0,0,1,0,0V70a1.68,1.68,0,0,1-1.68,1.68H77A1.68,1.68,0,0,1,75.28,70V67.32A0,0,0,0,1,75.28,67.32Z" transform="translate(157.41 139.02) rotate(180)"/><rect class="cls-2" x="76.67" y="50.46" width="4.07" height="16.85"/><path class="cls-2" d="M85.62,46.1h6.86a0,0,0,0,1,0,0v2.71a1.68,1.68,0,0,1-1.68,1.68H87.3a1.68,1.68,0,0,1-1.68-1.68V46.1A0,0,0,0,1,85.62,46.1Z"/><path class="cls-2" d="M85.62,67.32h6.86a0,0,0,0,1,0,0V70A1.68,1.68,0,0,1,90.8,71.7H87.3A1.68,1.68,0,0,1,85.62,70V67.32A0,0,0,0,1,85.62,67.32Z" transform="translate(178.1 139.02) rotate(180)"/><rect class="cls-2" x="87.02" y="50.46" width="4.07" height="16.85"/><polyline class="cls-2" points="27.83 41.94 7.52 41.94 7.52 46.1 29.48 46.1"/><rect class="cls-2" x="7.52" y="71.7" width="16.55" height="4.86" transform="translate(31.59 148.27) rotate(180)"/><path class="cls-2" d="M19.54,46.1H23a1.68,1.68,0,0,1,1.68,1.68v2.71a0,0,0,0,1,0,0H17.86a0,0,0,0,1,0,0V47.78A1.68,1.68,0,0,1,19.54,46.1Z" transform="translate(42.59 96.59) rotate(180)"/><path class="cls-2" d="M19.54,67.32H23A1.68,1.68,0,0,1,24.72,69V71.7a0,0,0,0,1,0,0H17.86a0,0,0,0,1,0,0V69A1.68,1.68,0,0,1,19.54,67.32Z"/><rect class="cls-2" x="19.26" y="50.46" width="4.07" height="16.85" transform="translate(42.59 117.78) rotate(180)"/><path class="cls-2" d="M9.2,46.1H12.7a1.68,1.68,0,0,1,1.68,1.68v2.71a0,0,0,0,1,0,0H7.52a0,0,0,0,1,0,0V47.78A1.68,1.68,0,0,1,9.2,46.1Z" transform="translate(21.9 96.59) rotate(180)"/><path class="cls-2" d="M9.2,67.32H12.7A1.68,1.68,0,0,1,14.38,69V71.7a0,0,0,0,1,0,0H7.52a0,0,0,0,1,0,0V69A1.68,1.68,0,0,1,9.2,67.32Z"/><rect class="cls-2" x="8.92" y="50.46" width="4.07" height="16.85" transform="translate(21.9 117.78) rotate(180)"/><polygon class="cls-2" points="49.77 23.44 24.32 36.12 49.77 36.12 75.21 36.12 49.77 23.44"/><rect class="cls-2" x="26.99" y="36.12" width="46.01" height="4.86"/><rect class="cls-2" x="26.99" y="66.84" width="46.01" height="4.86"/><rect class="cls-2" x="24.08" y="71.7" width="51.84" height="4.86"/><path class="cls-2" d="M27.72,41h8a0,0,0,0,1,0,0v2.61a1.82,1.82,0,0,1-1.82,1.82H29.54a1.82,1.82,0,0,1-1.82-1.82V41A0,0,0,0,1,27.72,41Z"/><path class="cls-2" d="M27.72,62.41h8a0,0,0,0,1,0,0V65a1.82,1.82,0,0,1-1.82,1.82H29.54A1.82,1.82,0,0,1,27.72,65V62.41A0,0,0,0,1,27.72,62.41Z" transform="translate(63.46 129.25) rotate(180)"/><rect class="cls-2" x="29.35" y="45.39" width="4.75" height="17.02"/><path class="cls-2" d="M39.8,41h8a0,0,0,0,1,0,0v2.61A1.82,1.82,0,0,1,46,45.41H41.62a1.82,1.82,0,0,1-1.82-1.82V41A0,0,0,0,1,39.8,41Z"/><path class="cls-2" d="M39.8,62.41h8a0,0,0,0,1,0,0V65A1.82,1.82,0,0,1,46,66.84H41.62A1.82,1.82,0,0,1,39.8,65V62.41A0,0,0,0,1,39.8,62.41Z" transform="translate(87.62 129.25) rotate(180)"/><rect class="cls-2" x="41.43" y="45.39" width="4.75" height="17.02"/><path class="cls-2" d="M51.88,41h8a0,0,0,0,1,0,0v2.61a1.82,1.82,0,0,1-1.82,1.82H53.7a1.82,1.82,0,0,1-1.82-1.82V41A0,0,0,0,1,51.88,41Z"/><path class="cls-2" d="M51.88,62.41h8a0,0,0,0,1,0,0V65a1.82,1.82,0,0,1-1.82,1.82H53.7A1.82,1.82,0,0,1,51.88,65V62.41A0,0,0,0,1,51.88,62.41Z" transform="translate(111.78 129.25) rotate(180)"/><rect class="cls-2" x="53.51" y="45.39" width="4.75" height="17.02"/><path class="cls-2" d="M64,41h8a0,0,0,0,1,0,0v2.61a1.82,1.82,0,0,1-1.82,1.82H65.78A1.82,1.82,0,0,1,64,43.59V41A0,0,0,0,1,64,41Z"/><path class="cls-2" d="M64,62.41h8a0,0,0,0,1,0,0V65a1.82,1.82,0,0,1-1.82,1.82H65.78A1.82,1.82,0,0,1,64,65V62.41A0,0,0,0,1,64,62.41Z" transform="translate(135.94 129.25) rotate(180)"/><rect class="cls-2" x="65.59" y="45.39" width="4.75" height="17.02"/><path class="cls-3" d="M92.48,47.1h-22a1,1,0,0,1,0-2h21V42.94H72.17a1,1,0,0,1,0-2H92.48a1,1,0,0,1,1,1V46.1A1,1,0,0,1,92.48,47.1Z"/><path class="cls-3" d="M92.48,77.56H75.93a1,1,0,0,1-1-1V71.7a1,1,0,0,1,1-1H92.48a1,1,0,0,1,1,1v4.86A1,1,0,0,1,92.48,77.56Zm-15.55-2H91.48V72.7H76.93Z"/><path class="cls-3" d="M80.46,51.24H77a2.43,2.43,0,0,1-2.42-2.43V46.1a.75.75,0,0,1,.75-.75h6.86a.76.76,0,0,1,.75.75v2.71A2.43,2.43,0,0,1,80.46,51.24ZM76,46.85v2a.93.93,0,0,0,.92.93h3.51a.93.93,0,0,0,.93-.93v-2Z"/><path class="cls-3" d="M82.14,72.45H75.28a.74.74,0,0,1-.75-.75V69A2.42,2.42,0,0,1,77,66.57h3.51A2.42,2.42,0,0,1,82.89,69V71.7A.75.75,0,0,1,82.14,72.45ZM76,71h5.36V69a.93.93,0,0,0-.93-.92H77A.92.92,0,0,0,76,69Z"/><path class="cls-3" d="M80.74,68.07H76.67a.76.76,0,0,1-.75-.75V50.46a.76.76,0,0,1,.75-.75h4.07a.76.76,0,0,1,.75.75V67.32A.76.76,0,0,1,80.74,68.07Zm-3.32-1.5H80V51.21H77.42Z"/><path class="cls-3" d="M90.8,51.24H87.3a2.43,2.43,0,0,1-2.43-2.43V46.1a.76.76,0,0,1,.75-.75h6.86a.76.76,0,0,1,.75.75v2.71A2.43,2.43,0,0,1,90.8,51.24Zm-4.43-4.39v2a.93.93,0,0,0,.93.93h3.5a.93.93,0,0,0,.93-.93v-2Z"/><path class="cls-3" d="M92.48,72.45H85.62a.75.75,0,0,1-.75-.75V69a2.42,2.42,0,0,1,2.43-2.42h3.5A2.42,2.42,0,0,1,93.23,69V71.7A.75.75,0,0,1,92.48,72.45ZM86.37,71h5.36V69a.93.93,0,0,0-.93-.92H87.3a.93.93,0,0,0-.93.92Z"/><path class="cls-3" d="M91.08,68.07H87a.75.75,0,0,1-.75-.75V50.46a.75.75,0,0,1,.75-.75h4.06a.75.75,0,0,1,.75.75V67.32A.75.75,0,0,1,91.08,68.07Zm-3.31-1.5h2.56V51.21H87.77Z"/><path class="cls-3" d="M29.48,47.1h-22a1,1,0,0,1-1-1V41.94a1,1,0,0,1,1-1H27.83a1,1,0,0,1,0,2H8.52V45.1h21a1,1,0,0,1,0,2Z"/><path class="cls-3" d="M24.07,77.56H7.52a1,1,0,0,1-1-1V71.7a1,1,0,0,1,1-1H24.07a1,1,0,0,1,1,1v4.86A1,1,0,0,1,24.07,77.56Zm-15.55-2H23.07V72.7H8.52Z"/><path class="cls-3" d="M23.05,51.24H19.54a2.43,2.43,0,0,1-2.43-2.43V46.1a.76.76,0,0,1,.75-.75h6.86a.75.75,0,0,1,.75.75v2.71A2.43,2.43,0,0,1,23.05,51.24Zm-4.44-4.39v2a.93.93,0,0,0,.93.93h3.51a.93.93,0,0,0,.92-.93v-2Z"/><path class="cls-3" d="M24.72,72.45H17.86a.75.75,0,0,1-.75-.75V69a2.42,2.42,0,0,1,2.43-2.42h3.51A2.42,2.42,0,0,1,25.47,69V71.7A.74.74,0,0,1,24.72,72.45ZM18.61,71H24V69a.92.92,0,0,0-.92-.92H19.54a.93.93,0,0,0-.93.92Z"/><path class="cls-3" d="M23.33,68.07H19.26a.76.76,0,0,1-.75-.75V50.46a.76.76,0,0,1,.75-.75h4.07a.76.76,0,0,1,.75.75V67.32A.76.76,0,0,1,23.33,68.07ZM20,66.57h2.57V51.21H20Z"/><path class="cls-3" d="M12.7,51.24H9.2a2.43,2.43,0,0,1-2.43-2.43V46.1a.76.76,0,0,1,.75-.75h6.86a.75.75,0,0,1,.75.75v2.71A2.43,2.43,0,0,1,12.7,51.24ZM8.27,46.85v2a.93.93,0,0,0,.93.93h3.5a.93.93,0,0,0,.93-.93v-2Z"/><path class="cls-3" d="M14.38,72.45H7.52a.75.75,0,0,1-.75-.75V69A2.42,2.42,0,0,1,9.2,66.57h3.5A2.42,2.42,0,0,1,15.13,69V71.7A.74.74,0,0,1,14.38,72.45ZM8.27,71h5.36V69a.92.92,0,0,0-.93-.92H9.2a.93.93,0,0,0-.93.92Z"/><path class="cls-3" d="M13,68.07H8.92a.75.75,0,0,1-.75-.75V50.46a.75.75,0,0,1,.75-.75H13a.75.75,0,0,1,.75.75V67.32A.75.75,0,0,1,13,68.07Zm-3.31-1.5h2.56V51.21H9.67Z"/><path class="cls-3" d="M75.21,37.12H24.32a1,1,0,0,1-.44-1.9L49.32,22.54a1,1,0,0,1,.89,0L75.65,35.22a1,1,0,0,1-.44,1.9Zm-46.64-2H71L49.77,24.55Z"/><path class="cls-3" d="M73,42H27a1,1,0,0,1-1-1V36.12a1,1,0,0,1,1-1H73a1,1,0,0,1,1,1V41A1,1,0,0,1,73,42ZM28,40H72V37.12H28Z"/><path class="cls-3" d="M73,72.7H27a1,1,0,0,1-1-1V66.84a1,1,0,0,1,1-1H73a1,1,0,0,1,1,1V71.7A1,1,0,0,1,73,72.7Zm-45-2H72V67.84H28Z"/><path class="cls-3" d="M75.92,77.56H24.08a1,1,0,0,1-1-1V71.7a1,1,0,0,1,1-1H75.92a1,1,0,0,1,1,1v4.86A1,1,0,0,1,75.92,77.56Zm-50.84-2H74.92V72.7H25.08Z"/><path class="cls-3" d="M33.91,46.16H29.54A2.57,2.57,0,0,1,27,43.59V41a.76.76,0,0,1,.75-.75h8a.75.75,0,0,1,.75.75v2.61A2.57,2.57,0,0,1,33.91,46.16Zm-5.44-4.43v1.86a1.07,1.07,0,0,0,1.07,1.07h4.37A1.07,1.07,0,0,0,35,43.59V41.73Z"/><path class="cls-3" d="M35.73,67.59h-8a.76.76,0,0,1-.75-.75V64.23a2.57,2.57,0,0,1,2.57-2.57h4.37a2.57,2.57,0,0,1,2.57,2.57v2.61A.75.75,0,0,1,35.73,67.59Zm-7.26-1.5H35V64.23a1.07,1.07,0,0,0-1.07-1.07H29.54a1.07,1.07,0,0,0-1.07,1.07Z"/><path class="cls-3" d="M34.1,63.16H29.35a.76.76,0,0,1-.75-.75v-17a.75.75,0,0,1,.75-.75H34.1a.74.74,0,0,1,.75.75v17A.75.75,0,0,1,34.1,63.16Zm-4-1.5h3.25V46.14H30.1Z"/><path class="cls-3" d="M46,46.16H41.62a2.58,2.58,0,0,1-2.57-2.57V41a.76.76,0,0,1,.75-.75h8a.75.75,0,0,1,.75.75v2.61A2.57,2.57,0,0,1,46,46.16Zm-5.44-4.43v1.86a1.07,1.07,0,0,0,1.07,1.07H46a1.07,1.07,0,0,0,1.07-1.07V41.73Z"/><path class="cls-3" d="M47.81,67.59h-8a.76.76,0,0,1-.75-.75V64.23a2.58,2.58,0,0,1,2.57-2.57H46a2.57,2.57,0,0,1,2.57,2.57v2.61A.75.75,0,0,1,47.81,67.59Zm-7.26-1.5h6.51V64.23A1.07,1.07,0,0,0,46,63.16H41.62a1.07,1.07,0,0,0-1.07,1.07Z"/><path class="cls-3" d="M46.18,63.16H41.43a.76.76,0,0,1-.75-.75v-17a.75.75,0,0,1,.75-.75h4.75a.74.74,0,0,1,.75.75v17A.75.75,0,0,1,46.18,63.16Zm-4-1.5h3.25V46.14H42.18Z"/><path class="cls-3" d="M58.07,46.16H53.7a2.58,2.58,0,0,1-2.57-2.57V41a.76.76,0,0,1,.75-.75h8a.75.75,0,0,1,.75.75v2.61A2.57,2.57,0,0,1,58.07,46.16Zm-5.44-4.43v1.86a1.07,1.07,0,0,0,1.07,1.07h4.37a1.07,1.07,0,0,0,1.07-1.07V41.73Z"/><path class="cls-3" d="M59.89,67.59h-8a.76.76,0,0,1-.75-.75V64.23a2.58,2.58,0,0,1,2.57-2.57h4.37a2.57,2.57,0,0,1,2.57,2.57v2.61A.75.75,0,0,1,59.89,67.59Zm-7.26-1.5h6.51V64.23a1.07,1.07,0,0,0-1.07-1.07H53.7a1.07,1.07,0,0,0-1.07,1.07Z"/><path class="cls-3" d="M58.26,63.16H53.51a.76.76,0,0,1-.75-.75v-17a.75.75,0,0,1,.75-.75h4.75a.74.74,0,0,1,.75.75v17A.75.75,0,0,1,58.26,63.16Zm-4-1.5h3.25V46.14H54.26Z"/><path class="cls-3" d="M70.15,46.16H65.78a2.58,2.58,0,0,1-2.57-2.57V41a.76.76,0,0,1,.75-.75h8a.76.76,0,0,1,.75.75v2.61A2.58,2.58,0,0,1,70.15,46.16Zm-5.44-4.43v1.86a1.07,1.07,0,0,0,1.07,1.07h4.37a1.07,1.07,0,0,0,1.08-1.07V41.73Z"/><path class="cls-3" d="M72,67.59H64a.76.76,0,0,1-.75-.75V64.23a2.58,2.58,0,0,1,2.57-2.57h4.37a2.58,2.58,0,0,1,2.58,2.57v2.61A.76.76,0,0,1,72,67.59Zm-7.27-1.5h6.52V64.23a1.07,1.07,0,0,0-1.08-1.07H65.78a1.07,1.07,0,0,0-1.07,1.07Z"/><path class="cls-3" d="M70.34,63.16H65.59a.76.76,0,0,1-.75-.75v-17a.75.75,0,0,1,.75-.75h4.75a.74.74,0,0,1,.75.75v17A.75.75,0,0,1,70.34,63.16Zm-4-1.5h3.25V46.14H66.34Z"/></svg>