<svg id="Layer_1" data-name="Layer 1" xmlns="http://www.w3.org/2000/svg" viewBox="0 0 100 100"><defs><style>.cls-1{fill:#eb4f51;}.cls-2{fill:#4f5869;}.cls-3{fill:#e7c91e;}.cls-4{fill:#e5b922;}</style></defs><title>ACTIVITIES</title><path class="cls-1" d="M77.45,35.66c1-1.42,3.13-5,6-5.62a29.25,29.25,0,0,0-.59,6.44c.09,12-.73,21.57-8.12,22.08l-3.67-3.88,6.38-19"/><path class="cls-2" d="M74.74,59.25a.69.69,0,0,1-.51-.21l-3.66-3.88a.71.71,0,0,1-.15-.7l6.38-19a.56.56,0,0,1,.09-.19l.48-.68c1.2-1.75,3.2-4.66,5.94-5.21a.7.7,0,0,1,.64.2.68.68,0,0,1,.17.64,29.35,29.35,0,0,0-.57,6.27c.08,11.21-.52,22.21-8.77,22.78Zm-2.88-4.74L75,57.84c6.1-.68,7.25-8.37,7.16-21.36a33.22,33.22,0,0,1,.38-5.39c-1.73.89-3.14,2.95-4,4.26-.16.23-.3.45-.43.63Z"/><path class="cls-1" d="M22.55,35.66c-1-1.42-3.14-5-6-5.62a29.25,29.25,0,0,1,.59,6.44c-.09,12,.73,21.57,8.12,22.08l5.11-3.12L22.55,35.66"/><path class="cls-2" d="M25.26,59.25h0c-8.25-.57-8.85-11.57-8.77-22.78a29.35,29.35,0,0,0-.57-6.27.68.68,0,0,1,.17-.64.7.7,0,0,1,.64-.2c2.74.55,4.74,3.46,5.94,5.21l.48.68a.71.71,0,0,1,.08.15L31,55.18a.71.71,0,0,1-.28.85l-5.1,3.12A.69.69,0,0,1,25.26,59.25ZM17.45,31.09a33.22,33.22,0,0,1,.38,5.39c-.09,13.06,1.07,20.77,7.27,21.37l4.41-2.7L21.94,36c-.14-.18-.29-.4-.45-.64C20.59,34,19.18,32,17.45,31.09Z"/><path class="cls-3" d="M71.89,27.28l-5,21.26,7.22,5.3c3.83-5,2.84-18.35,3.57-24.4a17.41,17.41,0,0,1,1.9-6.28c-4.5-.7-7,3.08-7.72,4.12"/><path class="cls-2" d="M74.14,54.53a.71.71,0,0,1-.41-.13l-7.22-5.3a.69.69,0,0,1-.26-.72l5-21.26a.82.82,0,0,1,.1-.24l.07-.09c2.34-3.35,5.15-4.81,8.33-4.31a.7.7,0,0,1,.52.38.74.74,0,0,1,0,.65,16.85,16.85,0,0,0-1.81,6c-.2,1.65-.27,3.94-.35,6.36-.2,6.51-.46,14.62-3.36,18.37A.69.69,0,0,1,74.14,54.53ZM67.7,48.25,74,52.86c2.27-3.64,2.5-11,2.69-17,.07-2.45.15-4.77.36-6.48a19.64,19.64,0,0,1,1.5-5.59c-3.33,0-5.3,2.8-6,3.8Z"/><path class="cls-3" d="M28.11,27.28l5,22.37-7.22,4.19c-3.83-5-2.84-18.35-3.57-24.4a17.41,17.41,0,0,0-1.9-6.28c4.5-.7,7,3.08,7.72,4.12"/><path class="cls-2" d="M25.86,54.53a.69.69,0,0,1-.55-.27C22.41,50.51,22.15,42.4,22,35.89c-.08-2.42-.15-4.71-.35-6.36a16.85,16.85,0,0,0-1.81-6,.68.68,0,0,1,.49-1c3.19-.5,6,1,8.33,4.31l.07.09a.8.8,0,0,1,.11.25l5,22.37a.7.7,0,0,1-.33.75L26.2,54.44A.67.67,0,0,1,25.86,54.53ZM21.47,23.77A19.64,19.64,0,0,1,23,29.36c.21,1.71.29,4,.36,6.48.19,6,.43,13.47,2.73,17.08l6.23-3.61L27.46,27.56C26.76,26.56,24.8,23.77,21.47,23.77Z"/><path class="cls-3" d="M42.61,26.15l-.86-8s8.19,1.82,8.19,8.61c0-6.79,8.18-8.61,8.18-8.61l-.87,8L58.12,47h-16Z"/><path class="cls-2" d="M58.12,47.66h-16a.71.71,0,0,1-.5-.21.74.74,0,0,1-.2-.5l.46-20.77-.86-7.95a.7.7,0,0,1,.23-.59.69.69,0,0,1,.61-.16c.07,0,6,1.39,8,6,2.05-4.57,8-5.94,8-6a.69.69,0,0,1,.61.16.7.7,0,0,1,.23.59l-.87,8,.87,20.75a.7.7,0,0,1-.69.73ZM42.86,46.27H57.4l-.84-20.08a.17.17,0,0,1,0-.1l.76-7c-2.06.68-6.69,2.77-6.69,7.66a.7.7,0,0,1-1.39,0c0-4.89-4.64-7-6.69-7.66l.75,7a.28.28,0,0,1,0,.09Z"/><path class="cls-3" d="M71.92,62.73s8.85-.09,10.6,3.33c0,0,3-6.32-2.91-10.26l-5.47,2.76Z"/><path class="cls-2" d="M82.52,66.76a.71.71,0,0,1-.62-.38c-1.27-2.49-7.6-3-10-3h0a.69.69,0,0,1-.61-1l2.22-4.16a.72.72,0,0,1,.3-.3l5.47-2.76a.68.68,0,0,1,.69,0c6.35,4.22,3.18,11.07,3.15,11.14a.7.7,0,0,1-.61.4Zm-9.46-4.7c2.25.08,7,.51,9.23,2.59a7.15,7.15,0,0,0-2.73-8.05l-4.91,2.48Z"/><path class="cls-4" d="M69.35,53.13c-.21-.12.1.22,0,0Z"/><path class="cls-1" d="M62.71,47.82C64,46.84,64.38,32.58,65.9,26,67.07,21,70.37,17.9,75,18.78,69.78,23.7,72,41,69.65,48.54"/><path class="cls-2" d="M69.65,49.23a.64.64,0,0,1-.2,0,.69.69,0,0,1-.46-.86c.87-2.83,1.09-7.11,1.33-11.64.35-6.76.7-13.72,3.27-17.37-3.39-.1-6,2.41-7,6.87A109.42,109.42,0,0,0,65,38c-.68,7-1,9.69-1.88,10.34a.69.69,0,0,1-1-.12.7.7,0,0,1,.11-1c.51-.69,1-5.52,1.37-9.41a109.34,109.34,0,0,1,1.58-12c1.33-5.72,5.12-8.7,9.88-7.79a.7.7,0,0,1,.53.49.68.68,0,0,1-.19.69c-3,2.84-3.39,10.62-3.74,17.49-.24,4.62-.46,9-1.39,12A.68.68,0,0,1,69.65,49.23Zm-7.36-2Z"/><path class="cls-1" d="M37.29,47.82C36,46.84,35.62,32.58,34.1,26,32.93,21,29.63,17.9,25,18.78,30.22,23.7,28,41,30.35,48.54"/><path class="cls-2" d="M30.35,49.23a.68.68,0,0,1-.66-.49c-.93-3-1.15-7.35-1.39-12-.35-6.87-.76-14.65-3.74-17.49a.68.68,0,0,1-.19-.69.7.7,0,0,1,.53-.49c4.77-.91,8.55,2.07,9.88,7.79a109.34,109.34,0,0,1,1.58,12c.39,3.91.87,8.77,1.38,9.42a.65.65,0,0,1,.11.95.7.7,0,0,1-1,.11C36,47.72,35.67,45,35,38A109.42,109.42,0,0,0,33.43,26.2c-1-4.46-3.63-7-7-6.87C29,23,29.33,29.94,29.68,36.7c.24,4.53.46,8.81,1.33,11.64a.69.69,0,0,1-.46.86A.64.64,0,0,1,30.35,49.23Z"/><path class="cls-1" d="M61.59,65.61s2,6.83.76,9.57c0,0,10.49-2,10.94-11.93l-7.06-2.32Z"/><path class="cls-2" d="M62.35,75.87a.72.72,0,0,1-.55-.27.69.69,0,0,1-.08-.72c1-2-.24-7.24-.79-9.07a.7.7,0,0,1,.17-.69l4.64-4.68a.7.7,0,0,1,.7-.17l7.07,2.32a.69.69,0,0,1,.47.69c-.46,10.37-11.39,12.56-11.5,12.58Zm0-10.06c.39,1.39,1.46,5.59,1,8.39,2.57-.79,8.62-3.38,9.22-10.46l-6.15-2Z"/><path class="cls-3" d="M27.92,62.45s-8.85-.08-10.6,3.34c0,0-3-6.33,2.91-10.27l5.46,2.76Z"/><path class="cls-2" d="M17.32,66.48h0a.7.7,0,0,1-.61-.4c0-.06-3.21-6.91,3.14-11.13a.7.7,0,0,1,.7-.05L26,57.67a.7.7,0,0,1,.3.29l2.22,4.17a.69.69,0,0,1,0,.68.7.7,0,0,1-.59.34h-.16c-2.45,0-8.58.52-9.82,3A.71.71,0,0,1,17.32,66.48Zm3-10.16a7.09,7.09,0,0,0-2.73,8.06c2.24-2.08,7-2.51,9.22-2.6l-1.58-3Z"/><path class="cls-1" d="M38.25,65.33s-2,6.83-.76,9.57c0,0-10.5-2-11-11.93l7.07-2.32Z"/><path class="cls-2" d="M37.49,75.59h-.13c-.11,0-11-2.21-11.51-12.58a.7.7,0,0,1,.48-.69L33.39,60a.67.67,0,0,1,.71.17l4.64,4.68a.69.69,0,0,1,.17.68c-.55,1.83-1.76,7-.8,9.07a.69.69,0,0,1-.62,1ZM27.27,63.46c.6,7,6.65,9.64,9.21,10.45-.47-2.8.6-7,1-8.38l-4-4.09Z"/><path class="cls-3" d="M44.55,44.81c.41-12.58-.71-16.59-1.68-18.26S39.93,22.9,38,23.41h0l.71,24.49s-13.47-1.52-13,9.42,12.77,7.9,12.77,7.9l3,13.3L41.09,80l2.81-.76,6,.08,6-.08,2.81.76-.38-1.44,3-13.3s12.26,3,12.77-7.9-13-9.42-13-9.42l.08-2.82.63-21.67h0C59.94,22.9,58,24.78,57,26.55s-2.09,5.68-1.68,18.26"/><path class="cls-2" d="M58.78,80.66a.57.57,0,0,1-.18,0l-2.72-.73L49.94,80,44,79.9l-2.72.73a.68.68,0,0,1-.67-.18.69.69,0,0,1-.18-.66l.34-1.28L38,66c-1.75.31-6.38.82-9.63-1.6-2-1.53-3.15-3.91-3.3-7.09a8.85,8.85,0,0,1,2.6-7.22c3.2-3,8.37-3.08,10.35-3l-.69-23.72a.69.69,0,0,1,.52-.69c2.31-.61,4.48,1.48,5.63,3.46,1,1.66,2.22,5.4,1.79,18.63a.7.7,0,0,1-.7.67h0a.69.69,0,0,1-.67-.71c.31-9.54-.22-15.55-1.59-17.89C41.4,25.42,40,24.06,38.71,24l.69,23.86a.67.67,0,0,1-.22.53.69.69,0,0,1-.55.17c-.06,0-6.57-.68-10,2.56a7.57,7.57,0,0,0-2.16,6.15c.13,2.74,1.05,4.77,2.75,6,3.48,2.59,9.11,1.23,9.16,1.22a.7.7,0,0,1,.53.08.75.75,0,0,1,.32.44l3,13.3a.74.74,0,0,1,0,.33l-.07.28,1.65-.44a.58.58,0,0,1,.19,0l6,.08,6-.08a.58.58,0,0,1,.19,0l1.66.44-.08-.28a.74.74,0,0,1,0-.33l3-13.3a.7.7,0,0,1,.31-.44.66.66,0,0,1,.53-.08s5.7,1.36,9.17-1.23c1.69-1.26,2.61-3.29,2.74-6a7.57,7.57,0,0,0-2.16-6.15c-3.48-3.25-10-2.56-10-2.56a.69.69,0,0,1-.55-.17.67.67,0,0,1-.22-.53L61.16,24c-1.32,0-2.69,1.4-3.56,2.88-1.36,2.34-1.9,8.35-1.59,17.89a.69.69,0,0,1-.67.71.66.66,0,0,1-.71-.67c-.43-13.23.81-17,1.78-18.63,1.15-2,3.3-4,5.59-3.47h0a.69.69,0,0,1,.52.69l-.69,23.72c2-.09,7.15,0,10.35,3a8.85,8.85,0,0,1,2.6,7.22c-.15,3.18-1.26,5.56-3.3,7.09-3.25,2.42-7.88,1.91-9.63,1.6L59.11,78.51l.34,1.28a.69.69,0,0,1-.18.66A.68.68,0,0,1,58.78,80.66Z"/><path class="cls-1" d="M52,55.67s4.77-8.44,6.86-.89c0,0,1,5.66-2.69,6.44C52.75,61.94,52,55.67,52,55.67Z"/><path class="cls-2" d="M55.63,62a2.91,2.91,0,0,1-1.73-.57c-2.07-1.49-2.56-5.48-2.59-5.65a.78.78,0,0,1,.09-.42c.27-.48,2.69-4.68,5.25-4.36,1.28.15,2.25,1.37,2.87,3.62.42,2.25.27,6.58-3.2,7.31A3.3,3.3,0,0,1,55.63,62Zm-2.91-6.16c.17,1.13.77,3.59,2,4.46a1.58,1.58,0,0,0,1.32.27c3-.64,2.15-5.59,2.14-5.64-.43-1.55-1-2.48-1.69-2.56C55.29,52.2,53.51,54.5,52.72,55.81Z"/><path class="cls-1" d="M47.87,55.67S43.1,47.23,41,54.78c0,0-1.05,5.66,2.68,6.44C47.12,61.94,47.87,55.67,47.87,55.67Z"/><path class="cls-2" d="M44.24,62a3.37,3.37,0,0,1-.69-.07c-3.47-.73-3.62-5.06-3.21-7.25.63-2.31,1.6-3.53,2.88-3.68,2.58-.33,5,3.88,5.25,4.36a.78.78,0,0,1,.09.42c0,.17-.52,4.16-2.59,5.65A2.91,2.91,0,0,1,44.24,62Zm-2.56-7s-.86,4.95,2.16,5.58a1.58,1.58,0,0,0,1.32-.27c1.22-.87,1.82-3.33,2-4.46-.79-1.31-2.54-3.62-3.76-3.47-.66.08-1.26,1-1.71,2.62Z"/><path class="cls-2" d="M53.34,61.4H52V58.93a2,2,0,0,0-4,0V61.4H46.56V58.93a3.54,3.54,0,0,1,3.32-3.16H50a3.54,3.54,0,0,1,3.32,3.16Z"/><path class="cls-1" d="M49,64.9s-.07-2.5-1.29-3.26a1.56,1.56,0,0,0-2.37,1.46,19.07,19.07,0,0,0,0,2.62"/><path class="cls-2" d="M44.64,65.88a7.22,7.22,0,0,1,0-1.83c0-.34,0-.67,0-.92A2.32,2.32,0,0,1,45.76,61a2.17,2.17,0,0,1,2.29,0c1.49.93,1.6,3.54,1.61,3.83l-1.38,0c0-.82-.31-2.29-1-2.7a.81.81,0,0,0-.86,0,1,1,0,0,0-.45.87,10,10,0,0,1,0,1.06,7.37,7.37,0,0,0,0,1.43Z"/><path class="cls-1" d="M50.81,64.9s.07-2.5,1.29-3.26a1.56,1.56,0,0,1,2.37,1.46,18.34,18.34,0,0,1-.14,2.62"/><path class="cls-2" d="M55,65.88l-1.35-.32a10.92,10.92,0,0,0,.11-1.76c0-.27,0-.52,0-.73a1,1,0,0,0-.45-.87.81.81,0,0,0-.86,0c-.68.43-.95,2-1,2.7l-1.39,0c0-.29.13-2.9,1.61-3.83A2.2,2.2,0,0,1,54,61a2.32,2.32,0,0,1,1.14,2.13c0,.19,0,.43,0,.68A11.68,11.68,0,0,1,55,65.88Z"/><path class="cls-2" d="M56.34,67.12a2.56,2.56,0,0,1-1.19-.32,10.54,10.54,0,0,0-10.4,0,2.31,2.31,0,0,1-2.38,0C39.5,65,38.73,57.11,38.73,56.1a2,2,0,0,1,2-2.11v1.39c-.15,0-.62,0-.62.72,0,1.86,1.09,8.35,3,9.49a.94.94,0,0,0,1,0,11.9,11.9,0,0,1,11.7,0,.94.94,0,0,0,1,0c1.89-1.14,3-7.63,3-9.49,0-.72-.46-.72-.61-.72V54a2,2,0,0,1,2,2.11c0,1-.77,8.94-3.64,10.67A2.28,2.28,0,0,1,56.34,67.12Z"/><path class="cls-2" d="M42.16,56.79A1.45,1.45,0,1,0,43.57,55,1.62,1.62,0,0,0,42.16,56.79Z"/><path class="cls-2" d="M54.73,56.79A1.45,1.45,0,1,0,56.14,55,1.62,1.62,0,0,0,54.73,56.79Z"/><path class="cls-2" d="M57,75.59a2.39,2.39,0,0,1-1.76-.81,2.39,2.39,0,0,1-3.52,0,2.39,2.39,0,0,1-3.52,0,2.39,2.39,0,0,1-3.52,0,2.39,2.39,0,0,1-1.76.81c-1.54,0-2.74-1.52-2.74-3.47s1.23-3.47,2.74-3.47a2.39,2.39,0,0,1,1.76.81,2.39,2.39,0,0,1,3.52,0,2.39,2.39,0,0,1,3.52,0,2.39,2.39,0,0,1,3.52,0A2.39,2.39,0,0,1,57,68.65c1.51,0,2.74,1.55,2.74,3.47S58.52,75.59,57,75.59Zm-1.76-2.76a.68.68,0,0,1,.63.42,1.38,1.38,0,0,0,1.13,1c.73,0,1.35-1,1.35-2.09S57.72,70,57,70a1.38,1.38,0,0,0-1.13,1,.72.72,0,0,1-1.27,0,1.14,1.14,0,0,0-2.25,0,.72.72,0,0,1-1.27,0,1.14,1.14,0,0,0-2.25,0,.72.72,0,0,1-1.27,0,1.13,1.13,0,0,0-2.24,0A.72.72,0,0,1,44,71a1.38,1.38,0,0,0-1.13-1c-.73,0-1.36,1-1.36,2.09s.63,2.09,1.36,2.09a1.38,1.38,0,0,0,1.13-1,.72.72,0,0,1,1.27,0,1.13,1.13,0,0,0,2.24,0,.72.72,0,0,1,1.27,0,1.14,1.14,0,0,0,2.25,0,.72.72,0,0,1,1.27,0,1.14,1.14,0,0,0,2.25,0A.69.69,0,0,1,55.23,72.83Z"/><path class="cls-1" d="M53.32,72.38c0,5.23-1.51,9.46-3.38,9.46s-3.39-4.23-3.39-9.46"/><path class="cls-2" d="M49.94,82.53c-2.65,0-4.08-5.23-4.08-10.15a.69.69,0,1,1,1.38,0c0,5.35,1.6,8.77,2.7,8.77s2.69-3.42,2.69-8.77a.69.69,0,0,1,1.38,0C54,77.3,52.58,82.53,49.94,82.53Z"/><circle class="cls-1" cx="65" cy="56.66" r="3.08"/><path class="cls-2" d="M65,60.43a3.78,3.78,0,1,1,3.77-3.77A3.78,3.78,0,0,1,65,60.43Zm0-6.16a2.39,2.39,0,1,0,2.39,2.39A2.39,2.39,0,0,0,65,54.27Z"/><circle class="cls-1" cx="34.9" cy="56.66" r="3.08"/><path class="cls-2" d="M34.9,60.43a3.78,3.78,0,1,1,3.77-3.77A3.79,3.79,0,0,1,34.9,60.43Zm0-6.16a2.39,2.39,0,1,0,2.38,2.39A2.39,2.39,0,0,0,34.9,54.27Z"/><path class="cls-2" d="M60,62.52h-.15a.7.7,0,0,1-.72-.7.71.71,0,0,1,.72-.71h.09c.53,0,3,0,4.82,0,2,0,4.79-1.58,4.79-4.41s-2.85-4.37-4.78-4.39c-2.82,0-4.77,0-4.77,0a.72.72,0,1,1,0-1.43s2,0,4.78,0c3,0,6.2,2.28,6.2,5.83,0,3.9-3.7,5.78-6.19,5.82-1.71,0-4.1,0-4.77,0Z"/><path class="cls-2" d="M39.89,62.52s-2,0-4.79,0c-3,0-6.21-2.28-6.2-5.83,0-3.9,3.7-5.78,6.2-5.82,1.71,0,4.1,0,4.77,0H40a.7.7,0,0,1,.72.7.71.71,0,0,1-.72.71H40c-.53,0-3.05,0-4.83,0-2,0-4.79,1.58-4.8,4.41s2.86,4.37,4.8,4.39c2.81,0,4.77,0,4.77,0a.72.72,0,1,1,0,1.43Z"/><path class="cls-1" d="M47,21s1.19,2.57.91,7.61c-.75,13.47,2.07,15.71,2.07,15.71S52.75,42.11,52,28.64c-.28-5,.91-7.61.91-7.61a7.58,7.58,0,0,0-3,5.93A7.32,7.32,0,0,0,47,21Z"/><path class="cls-2" d="M49.94,45a.71.71,0,0,1-.44-.15c-.32-.25-3.08-2.84-2.33-16.28.27-4.78-.83-7.27-.84-7.29a.7.7,0,0,1,1-.86A7.65,7.65,0,0,1,50,23.65a8.5,8.5,0,0,1,2.56-3.2.71.71,0,0,1,.85.05.69.69,0,0,1,.18.82s-1.11,2.51-.84,7.28c.75,13.45-2,16-2.33,16.29A.7.7,0,0,1,49.94,45ZM48.35,23.56a25,25,0,0,1,.22,5.12c-.52,9.23.67,13,1.37,14.43.68-1.38,1.88-5.18,1.36-14.43a24.21,24.21,0,0,1,.21-5,6.57,6.57,0,0,0-.87,3.12c0,.12,0,.2,0,.22a.7.7,0,0,1-1.39,0v-.21A6.86,6.86,0,0,0,48.35,23.56Z"/><path class="cls-2" d="M55.06,52.59a.69.69,0,0,1-.7-.69v-.75c0-2.91-2-5.28-4.42-5.28s-4.43,2.37-4.43,5.28v.75a.7.7,0,0,1-1.39,0v-.75c0-3.67,2.61-6.66,5.82-6.66s5.81,3,5.81,6.66v.75A.69.69,0,0,1,55.06,52.59Z"/></svg>