<svg id="Layer_1" data-name="Layer 1" xmlns="http://www.w3.org/2000/svg" viewBox="0 0 100 100"><defs><style>.cls-1{fill:#eabd84;}.cls-2{fill:#c19461;}.cls-3{fill:#dda86f;}.cls-4{fill:#4f5869;}</style></defs><title>ACTIVITIES</title><path class="cls-1" d="M91.19,50.05c-.06-1.45.27-2.89-1.64-3.22s-3.59-.31-4.63-2.15c-.8-1.41-1.15-3-2.18-4.27a9.32,9.32,0,0,1-1.47-2.29c-1-2.35-.94-5.51-2.85-7.37-1.26-1.24-3.19-1.69-5-2A39.67,39.67,0,0,1,62.58,27.6l-.37.08c-2.18.57-2,2.54-1.81,4.32.17,1.42.29,2.85.34,4.27.11,2.8-.31,5.52-.36,8.29,0,.91-.12,2.23-1.31,2.17a7.7,7.7,0,0,1-2.54-1c-1.45-.73-2.84-1.5-4.53-1.15a.31.31,0,0,1-.24,0,9.54,9.54,0,0,0-1.94.26,9.21,9.21,0,0,0-2.6,1.4c-.66.41-1.58,1-2.35.48-.59-.37-.66-1.2-.74-1.83s.08-1.65-.84-1.9-2.19.18-3.07.22a.34.34,0,0,1-.33-.33,67.32,67.32,0,0,0-.25-11.09c-.22-2.09-.74-3.46-2.64-4.53a13.21,13.21,0,0,0-1.88-.85c-1.12.26-2.22.58-3.3.84-2,.51-4.07,1.14-6.13,1.56-2.23.45-4.68.73-6.47,2.28C18,32.13,15.92,34.66,16,36.4a28.72,28.72,0,0,0,.88,3.92c.17.88.38,1.73.61,2.59s.48,1.9-.29,2.61-2.31,1-3.38,1.32c-1.78.54-3.67.87-5.22,1.95a90.12,90.12,0,0,0-.19,10c0,1.48.1,3,.15,4.45,0,.85.06,1.7.08,2.55,0,.4,0,.88-.05,1.35a13.32,13.32,0,0,0,2.35,1.36l.12,0c.26,0,.5-.1.71-.12,1.32-.11,2.68-.06,4-.06a52.6,52.6,0,0,1,8.79.27,2.75,2.75,0,0,1,.9.26c.17.07.2.39.33.46,1.11.6,2-.29,3.17.06a2.14,2.14,0,0,1,1.16.93,8.45,8.45,0,0,0,2.72,3,14,14,0,0,0,4.32,1.86c1.48.33,3,.34,4.53.54,2.89.37,5.8.71,8.72.86a.28.28,0,0,1,.18-.06c2.5,0,5,.16,7.5,0a29,29,0,0,0,7.87-2c2.29-.82,4.84-1.32,6.5-3.25a4.62,4.62,0,0,1,3.83-1.62,20.12,20.12,0,0,0,3.37-.31,29.51,29.51,0,0,1,2.93-.66,24.65,24.65,0,0,1,3.33-.06c1.26,0,3.29.3,4.19-.64s.46-3.79.62-5.23c.3-2.64.73-5.25.81-7.9a.32.32,0,0,1,.16-.27C91.82,53.06,91.26,51.61,91.19,50.05Z"/><path class="cls-2" d="M43.63,50.86c4.86-.21,9.74-.2,14.6,0a4.26,4.26,0,0,1,2.24.52,4.26,4.26,0,0,1,1.39,2.13c1.5,3.88,2.71,7.89,4.61,11.59q-14.41.22-28.84-.06c-.07-1.42.93-2.62,1.61-3.87a18.13,18.13,0,0,0,1.5-4.32c.57-2.21,2.32-3.79,2.89-6"/><path class="cls-3" d="M60.74,36.27a59.17,59.17,0,0,1-.26,6.12c2.21.26,4.43.54,6.66.64a67.5,67.5,0,0,1,9.32.81c3,.55,6,.91,8.91,1.48a3.61,3.61,0,0,1-.45-.64c-.8-1.41-1.15-3-2.18-4.27a9.32,9.32,0,0,1-1.47-2.29c-1-2.35-.94-5.51-2.85-7.37-1.26-1.24-3.19-1.69-5-2A39.67,39.67,0,0,1,62.58,27.6l-.37.08c-2.18.57-2,2.54-1.81,4.32C60.57,33.42,60.69,34.85,60.74,36.27Z"/><path class="cls-3" d="M17.48,42.91a4.2,4.2,0,0,1,.21,1.66C25,43.08,32.46,43.12,39.9,42.72a68.1,68.1,0,0,0-.26-11c-.22-2.09-.74-3.46-2.64-4.53a13.21,13.21,0,0,0-1.88-.85c-1.12.26-2.22.58-3.3.84-2,.51-4.07,1.14-6.13,1.56-2.23.45-4.68.73-6.47,2.28C18,32.13,15.92,34.66,16,36.4a28.72,28.72,0,0,0,.88,3.92C17,41.2,17.25,42.05,17.48,42.91Z"/><path class="cls-4" d="M87.63,46.81a1,1,0,0,1-1-1V41.5a1,1,0,0,1,2,0v4.31A1,1,0,0,1,87.63,46.81Z"/><path class="cls-4" d="M88.8,42.5H86.63a1,1,0,0,1,0-2H88.8a1,1,0,1,1,0,2Z"/><path class="cls-4" d="M13.07,46.81a1,1,0,0,1-1-1V41.5a1,1,0,0,1,2,0v4.31A1,1,0,0,1,13.07,46.81Z"/><path class="cls-2" d="M36.17,53.56A10.83,10.83,0,0,0,34.72,49a4.44,4.44,0,0,0-1.25-1.37,6.19,6.19,0,0,0-2.54-.79l-.13,0a7.36,7.36,0,0,0-4.95,2.29,118.59,118.59,0,0,0,.11,18c.07.79.14,1.59.26,2.37,0,.26.11.55.33.66a.74.74,0,0,0,.33,0,72.16,72.16,0,0,0,8.44-.52.65.65,0,0,0,.44-.18.69.69,0,0,0,.1-.43L36,66.65c.1-2.75.19-5.5.29-8.25A31.27,31.27,0,0,0,36.17,53.56Z"/><path class="cls-2" d="M78.79,53.56A10.7,10.7,0,0,0,77.33,49a4.44,4.44,0,0,0-1.25-1.37,6.24,6.24,0,0,0-2.55-.79l-.13,0a7.41,7.41,0,0,0-5,2.29,118.59,118.59,0,0,0,.11,18c.07.79.15,1.59.27,2.37,0,.26.11.55.33.66a.7.7,0,0,0,.32,0,72.67,72.67,0,0,0,8.47-.52.67.67,0,0,0,.45-.18.69.69,0,0,0,.1-.43l.09-2.47c.1-2.75.19-5.5.29-8.25A31.27,31.27,0,0,0,78.79,53.56Z"/><path class="cls-4" d="M84.6,45.8a1,1,0,0,1-.91-.59c-.79-1.76-1.54-4-1.75-4.59l-1-1.26a1,1,0,0,1-.19-.37l-1.88-7.26c-3.09-2-12.08-3.49-16-4L61,29.78V33.1a1,1,0,0,1-2,0V29.38a1,1,0,0,1,.27-.69L61.79,26a1,1,0,0,1,.84-.31c.57.07,13.78,1.71,17.71,4.63a1,1,0,0,1,.37.56l1.93,7.42,1,1.23a.92.92,0,0,1,.16.31s.86,2.63,1.73,4.56a1,1,0,0,1-.5,1.33A1.15,1.15,0,0,1,84.6,45.8Z"/><path class="cls-4" d="M36,70.87H25.79a1,1,0,0,1-1-1V52.23a6.09,6.09,0,0,1,12.18,0V69.87A1,1,0,0,1,36,70.87Zm-9.18-2H35V52.23a4.09,4.09,0,0,0-8.18,0Z"/><path class="cls-4" d="M78.68,70.87H68.5a1,1,0,0,1-1-1V52.23a6.09,6.09,0,0,1,12.18,0V69.87A1,1,0,0,1,78.68,70.87Zm-9.18-2h8.18V52.23a4.09,4.09,0,0,0-8.18,0Z"/><path class="cls-4" d="M52.23,77.58c-11.09,0-22.33-2.33-22.33-6.79a2.65,2.65,0,0,1,.09-.68,1,1,0,0,1,1.23-.71,1,1,0,0,1,.71,1.22.55.55,0,0,0,0,.17c0,1.95,7.92,4.79,20.33,4.79s20.34-2.84,20.34-4.79a.69.69,0,0,0,0-.24,1,1,0,1,1,1.87-.7,2.53,2.53,0,0,1,.18.94C74.57,75.25,63.33,77.58,52.23,77.58Z"/><path class="cls-4" d="M68.5,66H36.3a1,1,0,0,1,0-2H68.5a1,1,0,0,1,0,2Z"/><path class="cls-4" d="M64.93,62.33H38.84a1,1,0,0,1,0-2H64.93a1,1,0,0,1,0,2Z"/><path class="cls-4" d="M62.8,58.66H41a1,1,0,0,1,0-2H62.8a1,1,0,0,1,0,2Z"/><path class="cls-4" d="M61.55,55H42.22a1,1,0,0,1,0-2H61.55a1,1,0,0,1,0,2Z"/><path class="cls-4" d="M59.23,51.32H44.53a1,1,0,0,1,0-2h14.7a1,1,0,0,1,0,2Z"/><path class="cls-4" d="M91.34,63.56h-.06c-2.88-.18-6.74-.2-12.16-.07h0a1,1,0,0,1-1-1,1,1,0,0,1,1-1c4.91-.12,8.45-.12,11.27,0V48.14c-9.71-3.65-30.2-4.38-30.41-4.38a1,1,0,0,1-1-1,1,1,0,0,1,1-1h0c.89,0,22,.77,31.72,4.78a1,1,0,0,1,.62.92v15.1a1,1,0,0,1-.31.73A1,1,0,0,1,91.34,63.56Z"/><path class="cls-4" d="M91.33,53.83h-.14c-2.87-.39-7.1-.71-12.58-1a1,1,0,0,1-1-1,1,1,0,0,1,1-1c5.53.26,9.82.59,12.75,1A1,1,0,0,1,92.32,53,1,1,0,0,1,91.33,53.83Z"/><path class="cls-4" d="M91.34,58.57h-.06c-3-.18-6.81-.2-12.1-.07h0a1,1,0,0,1,0-2c5.35-.13,9.25-.11,12.27.07a1,1,0,0,1-.06,2Z"/><path class="cls-4" d="M8.66,54a1,1,0,0,1-.25-2c3.1-.77,7.72-.77,11.76-.77,1.83,0,3.59,0,5-.07a1,1,0,0,1,.1,2c-1.51.07-3.27.07-5.15.07-3.93,0-8.42,0-11.27.71A1,1,0,0,1,8.66,54Z"/><path class="cls-4" d="M8.66,58.32a1,1,0,0,1-.25-2c3.1-.77,7.72-.77,11.76-.77,1.83,0,3.59,0,5-.07a1,1,0,0,1,.1,2c-1.51.07-3.27.07-5.15.07-3.93,0-8.42,0-11.27.71A1,1,0,0,1,8.66,58.32Z"/><path class="cls-4" d="M25.27,69.9H8.66a1,1,0,0,1-1-1V61.33a1,1,0,0,1,.75-1c3.1-.78,7.72-.77,11.76-.78,1.87,0,3.59,0,5-.06a1,1,0,1,1,.1,2c-1.51.08-3.27.08-5.15.07a62.69,62.69,0,0,0-10.51.55V67.9H25.27a1,1,0,0,1,0,2Z"/><path class="cls-4" d="M72.28,44.31a1,1,0,0,1-1-1V33.69a1,1,0,0,1,2,0v9.62A1,1,0,0,1,72.28,44.31Z"/><path class="cls-4" d="M73.44,34.69H71.27a1,1,0,0,1,0-2h2.17a1,1,0,0,1,0,2Z"/><path class="cls-4" d="M59.73,51.32a1,1,0,0,1-1-1V33.69a1,1,0,0,1,2,0V50.32A1,1,0,0,1,59.73,51.32Z"/><path class="cls-4" d="M60.89,34.69H58.72a1,1,0,0,1,0-2h2.17a1,1,0,0,1,0,2Z"/><path class="cls-4" d="M17.18,46.45a1,1,0,0,1-1-1l-.13-6.12-1.27-3a1,1,0,0,1,0-.83c5-10.18,22-9.92,22.72-9.9a1,1,0,0,1,.76.37l2.17,2.74a1,1,0,0,1,.21.62V42a1,1,0,1,1-2,0V29.73L37,27.65c-2.64,0-15.91.59-20.21,8.38L18,38.76a1,1,0,0,1,.08.37l.13,6.3a1,1,0,0,1-1,1Z"/><path class="cls-4" d="M8.66,61.78a1,1,0,0,1-1-1V48.31a1,1,0,0,1,.6-.92c10.87-4.67,34.37-5.6,35.37-5.63a1,1,0,1,1,.07,2c-.23,0-23.24.91-34,5.22v11.8A1,1,0,0,1,8.66,61.78Z"/><path class="cls-4" d="M31.34,44.31a1,1,0,0,1-1-1V33.69a1,1,0,0,1,2,0v9.62A1,1,0,0,1,31.34,44.31Z"/><path class="cls-4" d="M32.35,34.69H30.18a1,1,0,0,1,0-2h2.17a1,1,0,0,1,0,2Z"/><path class="cls-4" d="M43.9,51.32a1,1,0,0,1-1-1V33.69a1,1,0,0,1,2,0V50.32A1,1,0,0,1,43.9,51.32Z"/><path class="cls-4" d="M44.9,34.69H42.73a1,1,0,1,1,0-2H44.9a1,1,0,1,1,0,2Z"/><path class="cls-4" d="M14.08,42.5H11.91a1,1,0,1,1,0-2h2.17a1,1,0,0,1,0,2Z"/><path class="cls-4" d="M68.5,68a1,1,0,0,1-.89-.53L58.84,50.79a1,1,0,0,1,1.77-.93l8.77,16.62A1,1,0,0,1,69,67.83.93.93,0,0,1,68.5,68Z"/><path class="cls-4" d="M36,66.61a1,1,0,0,1-.47-.11,1,1,0,0,1-.41-1.35l8.06-15.29a1,1,0,0,1,1.77.93L36.86,66.08A1,1,0,0,1,36,66.61Z"/><path class="cls-4" d="M91.24,69.9H79.63a1,1,0,0,1,0-2H90.26l.08-5.36a1,1,0,0,1,1-1h0a1,1,0,0,1,1,1l-.1,6.35A1,1,0,0,1,91.24,69.9Z"/><path class="cls-4" d="M44,50.43a1,1,0,0,1-1-1c0-3.45,3.94-6.25,8.79-6.25,5,0,9,2.67,9,6.09a1,1,0,0,1-2,0c0-2.22-3.19-4.09-7-4.09-4.06,0-6.79,2.2-6.79,4.25A1,1,0,0,1,44,50.43Z"/><path class="cls-4" d="M51.88,45.18a1,1,0,0,1-1-1v-4.4a1,1,0,0,1,2,0v4.4A1,1,0,0,1,51.88,45.18Z"/><path class="cls-4" d="M54.19,43H49.57a1,1,0,0,1,0-2h4.62a1,1,0,0,1,0,2Z"/></svg>