<svg id="Layer_1" data-name="Layer 1" xmlns="http://www.w3.org/2000/svg" viewBox="0 0 100 100"><defs><style>.cls-1{fill:#bed1e7;}.cls-2{fill:#4f5869;}.cls-3{fill:#e5c253;}.cls-4{fill:#ee3766;}</style></defs><title>ACTIVITIES</title><polygon class="cls-1" points="43.14 21.65 38.9 21.65 34.66 21.65 30.7 27.93 37.21 35.91 38.9 35.91 40.6 35.91 47.11 27.93 43.14 21.65"/><path class="cls-2" d="M40.6,36.86H37.21a1,1,0,0,1-.74-.35l-6.51-8a1,1,0,0,1-.06-1.1l4-6.28a1,1,0,0,1,.8-.45h8.48a.93.93,0,0,1,.8.45l4,6.28a.93.93,0,0,1-.07,1.1l-6.51,8A1,1,0,0,1,40.6,36.86ZM37.66,35h2.49l5.79-7.1L42.62,22.6H35.18l-3.32,5.26Z"/><path class="cls-2" d="M47.11,28.88H30.7a.95.95,0,1,1,0-1.89H47.11a.95.95,0,0,1,0,1.89Z"/><path class="cls-2" d="M38.9,28.88a.94.94,0,0,1-.78-1.48l4.24-6.28a.94.94,0,0,1,1.31-.25,1,1,0,0,1,.26,1.31l-4.24,6.28A1,1,0,0,1,38.9,28.88Z"/><path class="cls-2" d="M38.9,28.88a.94.94,0,0,1-.78-.42l-4.24-6.28a.94.94,0,0,1,.25-1.31,1,1,0,0,1,1.32.25l4.24,6.28a1,1,0,0,1-.26,1.32A.94.94,0,0,1,38.9,28.88Z"/><path class="cls-3" d="M61.32,36.45a20.81,20.81,0,0,0-11,3.1l-5.27,4.61a21,21,0,1,0,16.24-7.71Zm0,35.78A14.83,14.83,0,1,1,76.15,57.4,14.83,14.83,0,0,1,61.32,72.23Z"/><path class="cls-3" d="M45.16,70.74a14.86,14.86,0,1,1,5-3.91l5,3.55A21,21,0,0,0,27.71,39.55l-5.27,4.61A20.95,20.95,0,0,0,50,75Z"/><path class="cls-2" d="M61.32,73.05A15.65,15.65,0,0,1,49.23,47.46a1,1,0,0,1,1.34-.13,1,1,0,0,1,.13,1.33A13.7,13.7,0,1,0,55.32,45a.95.95,0,1,1-.83-1.7,15.51,15.51,0,0,1,6.83-1.57,15.65,15.65,0,0,1,0,31.3Z"/><path class="cls-2" d="M61.32,79.3a21.9,21.9,0,0,1-17-35.73.95.95,0,1,1,1.47,1.19,20,20,0,1,0,5-4.41.95.95,0,1,1-1-1.61A21.9,21.9,0,1,1,61.32,79.3Z"/><path class="cls-2" d="M38.68,73.05A15.65,15.65,0,1,1,51,67a.95.95,0,1,1-1.49-1.17A13.76,13.76,0,1,0,44.26,70,.95.95,0,0,1,45,71.7,15.57,15.57,0,0,1,38.68,73.05Z"/><path class="cls-2" d="M38.68,79.3a21.92,21.92,0,1,1,17-8.07A.94.94,0,1,1,54.19,70a20,20,0,1,0-5.2,4.5,1,1,0,0,1,1,1.63A21.94,21.94,0,0,1,38.68,79.3Z"/><path class="cls-4" d="M67.13,22.44c-2.37-2.15-5.35.78-5.35.78s-3-2.93-5.35-.78c-2.94,2.66.61,5.92.61,5.92l4.74,4.12,4.75-4.12S70.08,25.1,67.13,22.44Z"/><path class="cls-2" d="M61.78,33.42a.92.92,0,0,1-.62-.23l-4.74-4.11a6.59,6.59,0,0,1-2.1-4.26,4.08,4.08,0,0,1,1.48-3.09c2-1.84,4.52-.85,6,.24,1.47-1.09,3.94-2.08,6-.24h0a4.15,4.15,0,0,1,1.48,3.09,6.62,6.62,0,0,1-2.08,4.24L62.4,33.19A.9.9,0,0,1,61.78,33.42ZM58.43,22.6a2,2,0,0,0-1.36.54,2.26,2.26,0,0,0-.86,1.68,4.62,4.62,0,0,0,1.47,2.85l4.1,3.55,4.13-3.57a4.59,4.59,0,0,0,1.44-2.83,2.21,2.21,0,0,0-.85-1.68h0c-1.69-1.53-4,.73-4,.75a1,1,0,0,1-1.33,0A4.6,4.6,0,0,0,58.43,22.6Z"/></svg>