<svg id="Layer_1" data-name="Layer 1" xmlns="http://www.w3.org/2000/svg" viewBox="0 0 100 100"><defs><style>.cls-1{fill:#ffdb9b;}.cls-2{fill:#f8e9c7;}.cls-3{fill:#bda477;}.cls-4{fill:#4f5869;}.cls-5{fill:#b98266;}</style></defs><title>ACTIVITIES</title><path class="cls-1" d="M82.34,65.7c.18-2.4.84-5-.23-7.13-1.17-2.39-2.37-5.09-3.5-7.51-1.21-2.61-1.28-4.92-1.31-7.79,0-3.58-.7-6.69-3.22-9.22-.22-.22-.54-1.3-.78-1.48C67.43,32.33,62,31,56.13,32c-4.75.83-9.53,1.83-14.39,1.71-4.66-.11-8.64-1.56-12.86-3.4a19.66,19.66,0,0,0-8-1.4c-.53.36-1.29-1.62-1.61-1-.11-.25-.57,1.12-.7.88a7.54,7.54,0,0,1-3.16,1.4,1.77,1.77,0,0,1-1.3-.25L12.9,31.16a5.64,5.64,0,0,0-3,2.74,18.35,18.35,0,0,0-1.6,6.84c.06,1.92,1.12,2.58,2.74,3.63,1.45.94,3.26-.51,4.9-1.06s3.4-.18,5.13-.09a1.77,1.77,0,0,1,1.16.41,2,2,0,0,1,.45,1.1c1.2,6.14.62,12.05.45,18.31-.19,6.62-2.43,4.74-3.25,4.95-2.15.56-2.26,2.78-3.21,4.78-.05.11.57.11.52.22,2.57-.14,3.39-.21,6-.27a3.5,3.5,0,0,0,1.09-.88c1.6-1.91,2.51-3.66,4.22-5.59,0-.27,1-1.09,1.17-1.39.67-1.22.6-2,1.52-3,.1-.12.69-1,.8-1.08.38-.83.87-2.1,1.3-3.26a.6.6,0,0,1,.06-.61c.1-.15.21-.27.31-.41s.21-.57.29-.81L34,56c2.51-2.48,6.76-2.08,9.93-.83,4.73-1.56,9.18-2.42,14.17-3.68.17.53,1.47-.52,1.65,0,.53,0,.86.43,1.07,1a4,4,0,0,1,2.64-.34,11.41,11.41,0,0,1,3.77,2.18,9,9,0,0,1,2.28,2.5A5.16,5.16,0,0,1,72,59.11c1.61,2.33,3.36,3.32,4.66,5.83.62,1.2-1.4,5.27-1.32,6.62s1.87,1.26.81,1.93c1.31-.1,2.6-.29,3.93-.32A7.25,7.25,0,0,0,82,70.8C82.8,69.19,82.2,67.52,82.34,65.7Z"/><path class="cls-2" d="M36.93,49.07S50,44.86,59.74,50.65c0,0-3.32,3.26-13.87,3.42s-10.5.29-10.5.29Z"/><path class="cls-3" d="M34.62,56.77c1.47,3.58,3.11,8.93,4.5,12,.11.25-2.52.46-2.52.74,0,1.27-.53,1.12-1.42,2-.35.35.77,1,.81,1.48a37.92,37.92,0,0,1,6.3.19A30.38,30.38,0,0,0,41.89,56C39.32,55.27,36.23,54.65,34.62,56.77Z"/><path class="cls-3" d="M67.25,56.21a11.92,11.92,0,0,0-3.61-2.42,3.94,3.94,0,0,0-2.49.18c.2,1.39.33,2.83.4,4.28a17.77,17.77,0,0,1,1.64,5.34,5.47,5.47,0,0,1-2.06,5,6.69,6.69,0,0,1-1.13.58c-.73.83-1.7,1.34-2.43,2.16-.06.07-.29.34-.5.64a4,4,0,0,0,0,1.29c.2,0,.49-.11.91-.15,2.41-.25,4.75-.72,7.09-.11,1-2.41,2.76-3.47,3.41-6,.61-2.33.43-5.59.51-8.34A7.86,7.86,0,0,0,67.25,56.21Z"/><path class="cls-4" d="M21.13,32.6a1,1,0,0,1-1-.87,9.25,9.25,0,0,0-.9-3c-.71.79-1.79,2.2-2.67,3.44A1,1,0,1,1,15,31c3.12-4.42,4-4.68,4.25-4.76a1,1,0,0,1,1.07.34,10.5,10.5,0,0,1,1.83,4.87,1,1,0,0,1-.86,1.1Zm-1.25-4.46Z"/><path class="cls-4" d="M12.12,46.39a1.84,1.84,0,0,1-.71-.13c-1.48-.75-4.2-3.84-4.73-4.45a1,1,0,0,1-.16-1.06S8.1,37.27,9.35,34c1.49-3.88,5.78-4.31,6-4.33a1,1,0,0,1,.18,2c-.14,0-3.26.36-4.3,3.07-1,2.53-2.11,5.15-2.61,6.29a24.78,24.78,0,0,0,3.55,3.43,3.42,3.42,0,0,0,1.78-1,8,8,0,0,1,5-1.87,6.87,6.87,0,0,1,2.21.28c.7-.35,2.27-1.31,2.3-2.91a1,1,0,0,1,1-1,1,1,0,0,1,1,1c-.08,3.4-3.76,4.82-3.91,4.88a1,1,0,0,1-.79,0,3.72,3.72,0,0,0-1.75-.27A6.11,6.11,0,0,0,15.19,45,4.93,4.93,0,0,1,12.12,46.39Z"/><path class="cls-4" d="M22.2,73.76H16.64a1,1,0,0,1-.84-.47,1,1,0,0,1-.05-1c1.91-3.81,2.29-4.14,2.43-4.26s.55-.47,2.7-.71c.92-2.7,4.46-14.51,0-23.85a1,1,0,0,1,.47-1.32,1,1,0,0,1,1.32.47c5.42,11.34.1,25.39-.13,26a1,1,0,0,1-.83.63,14.44,14.44,0,0,0-2.26.35c-.17.25-.66,1.15-1.19,2.16H21.9C26.8,68.44,30.72,61,33.17,55.35c1.69-3.92,2.63-7,2.64-7a1,1,0,0,1,.79-.69l3.24-.52c.34,0,7.64-1,10.35-.55A1,1,0,0,1,51,47.75a1,1,0,0,1-1.13.82c-2-.32-7.73.29-9.75.55l-2.62.42c-.35,1.08-1.22,3.56-2.52,6.59-2.6,6-6.83,13.94-12.26,17.47A.92.92,0,0,1,22.2,73.76Zm-2.84-4.12Zm2.25-1.36h0Z"/><path class="cls-4" d="M41.59,73.76H34.71a1,1,0,0,1-.79-.39,1,1,0,0,1-.16-.87c.13-.45,1.29-4.2,4.05-4.63L33.54,56.72a1,1,0,0,1,.57-1.28,1,1,0,0,1,1.28.57L40,68.09a1,1,0,0,1-.53,1.26l-.86.38a1.37,1.37,0,0,1-.35.08c-.9,0-1.63,1-2.1,2h4.77l1.94-4.51a1.4,1.4,0,0,0,.1-.73L41.35,55.17a1,1,0,0,1,2-.28l1.63,11.37a3.37,3.37,0,0,1-.24,1.8l-2.2,5.1A1,1,0,0,1,41.59,73.76Z"/><path class="cls-4" d="M35.33,56h-.15a1,1,0,1,1,0-2h.06c1,0,16.22-.07,25-4A1,1,0,1,1,61,51.84C52,55.9,37.12,56,35.33,56Z"/><path class="cls-4" d="M81.3,73.76H74.73a1,1,0,0,1-1-1c0-3.07,1.51-4.58,2.81-5.16-.67-5-5-7.95-5.09-8a111.89,111.89,0,0,1-10.77-7.89l-.1-.09c-1.18-1.28-3.19-2.19-6-2.72A1,1,0,1,1,55,47c3.17.6,5.52,1.69,7,3.26A114.49,114.49,0,0,0,72.51,58c.27.18,5.74,3.88,6.09,10.29a1,1,0,0,1-.85,1,2.65,2.65,0,0,0-2,2.47H80.4l1.22-13.09A51.55,51.55,0,0,1,79,53.91a30,30,0,0,1-2.73-10.57c0-.65,0-1.3,0-1.94,0-2.42,0-4.51-2.57-6.41a9.56,9.56,0,0,0-4.15-1.66A50.4,50.4,0,0,0,50,34c-9.79,2.42-13.89.95-15.2.21a22,22,0,0,0-2.12-1.09c-2.22-1-7.8-3.17-11.61-2.71a1,1,0,0,1-1.1-.86,1,1,0,0,1,.86-1.1c4.14-.5,9.7,1.57,12.64,2.85a24.43,24.43,0,0,1,2.3,1.18c.62.35,4.16,2,13.75-.41a52.63,52.63,0,0,1,20.39-.69,11.49,11.49,0,0,1,5,2c3.41,2.5,3.39,5.56,3.38,8a17.23,17.23,0,0,0,0,1.78,28.12,28.12,0,0,0,2.54,9.87,46.07,46.07,0,0,0,2.64,4.86,1,1,0,0,1,.15.62L82.28,72.86A1,1,0,0,1,81.3,73.76Z"/><path class="cls-4" d="M89.71,57.19a4.92,4.92,0,0,1-2.39-.59c-.3-.14-3.65-1.93-4.65-10.21-1.16-9.59-9.11-11.69-9.45-11.77a1,1,0,0,1,.48-1.93A15.64,15.64,0,0,1,84.63,46.15c.87,7.18,3.6,8.69,3.63,8.71a3.08,3.08,0,0,0,3.64-.55,1,1,0,1,1,1.35,1.44A5.1,5.1,0,0,1,89.71,57.19Z"/><path class="cls-4" d="M64.73,73.76H57.89a1,1,0,0,1-.8-.41,1,1,0,0,1-.14-.9c.57-1.65,2.37-4.56,5.45-5L60.12,51.64a1,1,0,1,1,2-.28L64.51,68.3a1,1,0,0,1-1.06,1.13,4.33,4.33,0,0,0-4,2.35h4.74l3-4.23c0-1.51,0-7.53,1.57-10.49a1,1,0,0,1,1.75.94c-1.27,2.37-1.39,7.89-1.33,9.82a.94.94,0,0,1-.19.61l-3.53,4.92A1,1,0,0,1,64.73,73.76Z"/><path class="cls-5" d="M68.86,38.2a3,3,0,0,0-.46-.72,1.69,1.69,0,0,1-.45-.67c0-.13,0-.26,0-.39a.78.78,0,0,0-.48-.63.84.84,0,0,0-.77.08l0,0a.05.05,0,0,1,0,0c-.1-.06-.19-.15-.32-.13a2.09,2.09,0,0,0-.34.08c-.14.06-.19.2-.3.29s-.17.55-.07.82a1,1,0,0,1,.08.84,1.73,1.73,0,0,1-.41.4A.94.94,0,0,0,65,39a.92.92,0,0,0,.5.66,1.83,1.83,0,0,0,.93.08c.52-.05,1-.12,1.55-.21s.79-.17.94-.51A1,1,0,0,0,68.86,38.2Z"/><path class="cls-5" d="M33.21,38a2.94,2.94,0,0,0-.45-.71,1.59,1.59,0,0,1-.45-.68c0-.12,0-.26,0-.39a.84.84,0,0,0-.48-.63.87.87,0,0,0-.77.09H31c-.1-.06-.19-.15-.31-.13a1.37,1.37,0,0,0-.35.08c-.13.06-.19.19-.3.29s-.17.54-.07.82a1.09,1.09,0,0,1,.09.84c-.1.17-.28.26-.41.4a.9.9,0,0,0-.26.79.91.91,0,0,0,.51.66,1.71,1.71,0,0,0,.93.09c.52-.06,1-.13,1.55-.21a1.16,1.16,0,0,0,.94-.51A1,1,0,0,0,33.21,38Z"/><path class="cls-5" d="M76.88,55a3.35,3.35,0,0,0-.45-.72,1.61,1.61,0,0,1-.46-.67c0-.13,0-.26,0-.39a.78.78,0,0,0-.48-.63.84.84,0,0,0-.77.08s0,0,0,0l0,0c-.1-.06-.19-.15-.32-.13a2.09,2.09,0,0,0-.34.08c-.14.06-.19.2-.3.29s-.17.55-.07.82a1,1,0,0,1,.08.84,1.73,1.73,0,0,1-.41.4.94.94,0,0,0-.25.8.92.92,0,0,0,.5.66,1.83,1.83,0,0,0,.93.08c.52,0,1-.12,1.55-.21a1.18,1.18,0,0,0,1-.51A1,1,0,0,0,76.88,55Z"/><path class="cls-5" d="M55.54,38.33a1.17,1.17,0,0,0-.25-.54,1.2,1.2,0,0,0-.85-.26.48.48,0,0,0-.37.08,1.1,1.1,0,0,0-.15.26.63.63,0,0,1-.55.28c-.22,0-.63.24-.66.43s0,.32,0,.38a.87.87,0,0,0,.07,1.25,1.68,1.68,0,0,0,.37.21l.63.28a1.48,1.48,0,0,0,1,.19,1.22,1.22,0,0,0,.64-.57,2.32,2.32,0,0,0,.28-.67A3,3,0,0,0,55.54,38.33Z"/><path class="cls-5" d="M30.71,52.72a1.12,1.12,0,0,0-.25-.54,1.19,1.19,0,0,0-.85-.26.45.45,0,0,0-.36.08.76.76,0,0,0-.16.26.65.65,0,0,1-.55.27c-.22,0-.63.24-.66.43s0,.33,0,.38a.89.89,0,0,0,.07,1.26,1.33,1.33,0,0,0,.37.2l.63.29a1.54,1.54,0,0,0,1,.19,1.29,1.29,0,0,0,.64-.58,2.26,2.26,0,0,0,.28-.66A3,3,0,0,0,30.71,52.72Z"/><path class="cls-5" d="M73.29,45.74a1.2,1.2,0,0,0-.25-.55,1.25,1.25,0,0,0-.85-.26.58.58,0,0,0-.37.08,1.17,1.17,0,0,0-.15.27.65.65,0,0,1-.56.27c-.21,0-.63.24-.65.43s0,.32,0,.38a.88.88,0,0,0,.06,1.26,2.18,2.18,0,0,0,.37.2l.63.28a1.47,1.47,0,0,0,1,.19,1.17,1.17,0,0,0,.63-.57,2,2,0,0,0,.28-.67A3,3,0,0,0,73.29,45.74Z"/><path class="cls-5" d="M29.4,43.33l-1,.67h0a1.13,1.13,0,0,0-.46.79,1.07,1.07,0,0,0,.36,1,.28.28,0,0,0,.21.13l.66.11a.23.23,0,0,0,.16,0c.23-.11.49-.18.64.06a1.47,1.47,0,0,1,.12.49c0,.17.1.35.22.39s.2,0,.29-.07c.33-.1.65.24,1,.33a.84.84,0,0,0,.93-.46,1.8,1.8,0,0,0,.15-1.35,2.62,2.62,0,0,0-.5-.88,1.78,1.78,0,0,0-.41-.45c-.24-.17-.53-.18-.78-.34s-.51-.56-.83-.63A1,1,0,0,0,29.4,43.33Z"/><path class="cls-5" d="M45.69,40c-.24-.38-.48-.76-.73-1.13h0a1.21,1.21,0,0,0-.86-.5,1.16,1.16,0,0,0-1.1.39.39.39,0,0,0-.15.23l-.12.72a.27.27,0,0,0,0,.19c.12.24.2.53-.07.69a1.48,1.48,0,0,1-.53.14c-.19,0-.39.1-.43.24s0,.21.07.32c.11.36-.26.7-.36,1.07a.94.94,0,0,0,.5,1,2,2,0,0,0,1.49.17,3.21,3.21,0,0,0,1-.55,2,2,0,0,0,.49-.46c.19-.26.2-.58.37-.85s.62-.56.69-.91A1.06,1.06,0,0,0,45.69,40Z"/><path class="cls-5" d="M65.38,45.71c.09-.44.19-.88.28-1.32h0a1.2,1.2,0,0,0-.25-1,1.16,1.16,0,0,0-1-.5.34.34,0,0,0-.27.06l-.6.42a.29.29,0,0,0-.1.16c-.09.26-.24.52-.54.44a1.43,1.43,0,0,1-.47-.28c-.16-.1-.35-.2-.48-.13s-.12.17-.17.27c-.18.34-.68.32-1,.51a.92.92,0,0,0-.37,1.07,2,2,0,0,0,.93,1.17,3.08,3.08,0,0,0,1.07.3,2.17,2.17,0,0,0,.67,0c.32,0,.55-.27.86-.34s.84,0,1.14-.15A1.13,1.13,0,0,0,65.38,45.71Z"/></svg>