<svg id="Layer_1" data-name="Layer 1" xmlns="http://www.w3.org/2000/svg" viewBox="0 0 100 100"><defs><style>.cls-1{fill:#29b574;}.cls-2{fill:#28a8e0;}.cls-3{fill:#6e6f71;}.cls-4{fill:#e6e7e7;}.cls-5{fill:#4f5869;}.cls-6{fill:#f15b2a;}</style></defs><title>ACTIVITIES</title><path class="cls-1" d="M19.1,24.57a.46.46,0,0,0,0,.65l7.61,7.61a1.54,1.54,0,0,0,1.18.54,7,7,0,0,1,4.21,2,.38.38,0,0,0,.53,0L34,34l1.32-1.32a.4.4,0,0,0,0-.53,6.94,6.94,0,0,1-2-4.21,1.54,1.54,0,0,0-.54-1.18l-7.61-7.61a.46.46,0,0,0-.65,0Z"/><path class="cls-2" d="M60.53,60.6c10.13-10,17.1-23.2,18.75-37.4.21-1.79-.36-2.35-2.15-2.14-14.2,1.64-27.39,8.62-37.4,18.74S22.63,63,21,77.2c-.21,1.8.35,2.36,2.14,2.15C37.33,77.7,50.53,70.73,60.53,60.6Z"/><path class="cls-3" d="M39.18,49.8c-2.77,2.67-2.55,5.62.2,8.37l1.39,1.39L42.16,61c2.76,2.76,5.7,3,8.38.21Z"/><path class="cls-4" d="M59.33,41c-2.74-2.75-7-2.54-10,0l-4.51,3.9-5.22,4.5a5.49,5.49,0,0,0-.43.4L44.41,55l6.13,6.13.4-.44,4.5-5.21L59.33,51c2.54-3,2.75-7.25,0-10Z"/><path class="cls-5" d="M22.48,80.32a2.49,2.49,0,0,1-1.82-.64,3,3,0,0,1-.59-2.58,64.24,64.24,0,0,1,19-38c10.52-10.64,24-17.39,38-19a3.08,3.08,0,0,1,2.58.58,3.1,3.1,0,0,1,.59,2.58,64.36,64.36,0,0,1-19,38,64.33,64.33,0,0,1-37.95,19A6.19,6.19,0,0,1,22.48,80.32ZM77.77,21.94a3.89,3.89,0,0,0-.53,0C63.71,23.54,50.62,30.1,40.39,40.45S23.47,63.77,21.91,77.31c-.11.89.05,1.06.05,1.06s.18.16,1.06.06A62.46,62.46,0,0,0,59.88,60h0A62.41,62.41,0,0,0,78.36,23.09c.1-.88-.06-1.05-.06-1.06S78.2,21.94,77.77,21.94Z"/><path class="cls-5" d="M32.38,36.37a1.31,1.31,0,0,1-.89-.34,6.05,6.05,0,0,0-3.71-1.74,2.49,2.49,0,0,1-1.73-.81l-7.6-7.6a1.39,1.39,0,0,1-.41-1,1.36,1.36,0,0,1,.41-1l5.39-5.39a1.35,1.35,0,0,1,1-.41h0a1.35,1.35,0,0,1,1,.41l7.6,7.6a2.45,2.45,0,0,1,.81,1.73A6.06,6.06,0,0,0,36,31.57a1.29,1.29,0,0,1-.06,1.79L33.28,36A1.25,1.25,0,0,1,32.38,36.37ZM32,34.68h0Zm.71-.06h0ZM20.08,24.89l7.28,7.28c.23.23.23.23.64.28a7.58,7.58,0,0,1,4.33,1.87l1.92-1.92a7.61,7.61,0,0,1-1.87-4.33c-.05-.41-.05-.41-.28-.64l-7.27-7.28Zm14.48,7.88h0Zm0-.73h0ZM19.1,24.57h0Zm6.06-4.75h0Z"/><path class="cls-6" d="M65.44,30.63a3,3,0,1,0,4.27,0A3,3,0,0,0,65.44,30.63Z"/><path class="cls-5" d="M67.57,36.7A3.94,3.94,0,0,1,64.78,30h0a4,4,0,0,1,5.58,0,3.94,3.94,0,0,1-2.79,6.73Zm-1.48-5.42a2.09,2.09,0,1,0,3,3,2.1,2.1,0,0,0,0-3A2.09,2.09,0,0,0,66.09,31.28Z"/><path class="cls-5" d="M50.54,62.09a1,1,0,0,1-.66-.27L38.52,50.45a.94.94,0,0,1-.27-.66.9.9,0,0,1,.28-.65l.48-.45,9.72-8.39A8,8,0,0,1,60,51.6l-8.39,9.73-.44.48a1,1,0,0,1-.66.28Zm-10-12.25,10,10,8.13-9.42a6.37,6.37,0,0,0,0-8.73h0a6.37,6.37,0,0,0-8.74,0Z"/><path class="cls-5" d="M46.54,64.05a7.17,7.17,0,0,1-5-2.45l-2.78-2.77a7.19,7.19,0,0,1-2.45-5.08,6.48,6.48,0,0,1,2.25-4.62.94.94,0,0,1,1.3,0L51.19,60.51a.93.93,0,0,1,0,1.3,6.51,6.51,0,0,1-4.62,2.24ZM39.2,51.13a4.28,4.28,0,0,0-1.07,2.63A5.43,5.43,0,0,0,40,57.52l2.78,2.78a5.4,5.4,0,0,0,3.75,1.9,4.15,4.15,0,0,0,2.63-1.07Z"/><path class="cls-5" d="M66.32,67.31a.93.93,0,0,1-.66-.27L33.29,34.67a.93.93,0,0,1,1.31-1.31L67,65.73a.93.93,0,0,1-.65,1.58Z"/><path class="cls-1" d="M80.9,75.43a.46.46,0,0,0,0-.65l-7.61-7.61a1.54,1.54,0,0,0-1.18-.54,7,7,0,0,1-4.21-2,.38.38,0,0,0-.53,0L66.05,66,64.73,67.3a.4.4,0,0,0,0,.53,6.94,6.94,0,0,1,2,4.21,1.54,1.54,0,0,0,.54,1.18l7.61,7.61a.46.46,0,0,0,.65,0Z"/><path class="cls-5" d="M75.18,81.89a1.35,1.35,0,0,1-1-.41l-7.6-7.6a2.45,2.45,0,0,1-.81-1.73A6.06,6.06,0,0,0,64,68.43a1.29,1.29,0,0,1,.06-1.79L66.72,64a1.3,1.3,0,0,1,1.79,0,6.05,6.05,0,0,0,3.71,1.74,2.49,2.49,0,0,1,1.73.81l7.6,7.6a1.38,1.38,0,0,1,.41,1,1.37,1.37,0,0,1-.41,1l-5.39,5.39a1.35,1.35,0,0,1-1,.41Zm-.33-1.72h0ZM65.75,67.6a7.61,7.61,0,0,1,1.87,4.33c0,.41,0,.41.28.64l7.27,7.28,4.75-4.74-7.28-7.28c-.23-.23-.23-.23-.63-.28a7.58,7.58,0,0,1-4.34-1.87Zm14.49,7.83ZM65.4,68h0Zm0-.73h0Zm1.87-1.85h0Zm.74-.06h0Z"/></svg>