<svg id="Layer_1" data-name="Layer 1" xmlns="http://www.w3.org/2000/svg" viewBox="0 0 100 100"><defs><style>.cls-1{fill:#826751;}.cls-2{fill:#99cd72;}.cls-3{fill:#44c5e1;}.cls-4{fill:#f05b82;}.cls-5{fill:#b99973;}.cls-6{fill:#4f5869;}.cls-7{fill:#fff;}</style></defs><title>ACTIVITIES</title><polygon class="cls-1" points="69.73 33.73 72.85 38.89 26.65 38.89 29.53 33.91 69.73 33.73"/><polygon class="cls-2" points="38.92 33.91 55.3 30 57.51 38.93 39.44 39.26 38.92 33.91"/><polygon class="cls-3" points="30.87 25.76 47.68 23.49 48.45 31.09 38.2 34.4 39.44 39.26 32.51 39.3 30.87 25.76"/><polygon class="cls-4" points="53.2 26.21 53.2 27.25 53.2 30.51 56 30.51 57.83 39.26 66.27 39.56 68.51 28.87 53.2 26.21"/><polygon class="cls-5" points="26.28 39.94 73.62 39.49 76.38 79.83 23.62 80.34 26.28 39.94"/><path class="cls-6" d="M73.62,40.41H26.31a.93.93,0,0,1-.8-.45.94.94,0,0,1,0-.92L29,32.83a.94.94,0,0,1,.8-.46h1a.92.92,0,1,1,0,1.84h-.46l-2.48,4.37H72l-2.49-4.37H68.32a.92.92,0,1,1,0-1.84h1.77a.94.94,0,0,1,.8.46L74.42,39a.92.92,0,0,1,0,.92A.9.9,0,0,1,73.62,40.41Z"/><path class="cls-6" d="M76.38,81.25H23.62A.9.9,0,0,1,23,81a.94.94,0,0,1-.25-.68l2.69-40.85a.91.91,0,0,1,.92-.85H73.69a.91.91,0,0,1,.92.85L77.3,80.28a.94.94,0,0,1-.25.68A.9.9,0,0,1,76.38,81.25ZM24.6,79.42H75.4l-2.57-39H27.17Z"/><path class="cls-6" d="M57.51,40.18a.92.92,0,0,1-.89-.71l-2-8.36L39.31,34.76l1,4.29a.92.92,0,0,1-1.79.42L37.31,34.3a.91.91,0,0,1,.11-.7,1,1,0,0,1,.57-.41l17.1-4.08a.93.93,0,0,1,1.11.68l2.2,9.26a.9.9,0,0,1-.68,1.1A.76.76,0,0,1,57.51,40.18Z"/><path class="cls-6" d="M32.15,40.18a.91.91,0,0,1-.91-.81L29.48,25.19a.92.92,0,0,1,.8-1L47.73,22a.92.92,0,0,1,1,.8l1.07,8.62a.92.92,0,1,1-1.82.22l-1-7.7L31.42,25.87l1.64,13.28a.92.92,0,0,1-.8,1Z"/><path class="cls-6" d="M66.59,40.41a.55.55,0,0,1-.18,0,.91.91,0,0,1-.72-1.08l2-9.68L53.74,26.75,52.87,31a.92.92,0,1,1-1.8-.37l1.06-5.13a.91.91,0,0,1,.39-.58,1,1,0,0,1,.7-.13L69,28a.94.94,0,0,1,.72,1.09L67.49,39.68A.92.92,0,0,1,66.59,40.41Z"/><path class="cls-7" d="M61,46a3,3,0,1,1-3-3A3,3,0,0,1,61,46Z"/><path class="cls-6" d="M58,49.93A3.92,3.92,0,1,1,61.86,46,3.92,3.92,0,0,1,58,49.93Zm0-6A2.08,2.08,0,1,0,60,46,2.08,2.08,0,0,0,58,43.94Z"/><path class="cls-7" d="M44.61,46a3,3,0,1,1-3-3A3,3,0,0,1,44.61,46Z"/><path class="cls-6" d="M41.61,49.93A3.92,3.92,0,1,1,45.53,46,3.92,3.92,0,0,1,41.61,49.93Zm0-6A2.08,2.08,0,1,0,43.69,46,2.08,2.08,0,0,0,41.61,43.94Z"/><path class="cls-6" d="M49.78,61.69a9.09,9.09,0,0,1-9.09-9.08V46.34a.92.92,0,0,1,1.84,0v6.27a7.25,7.25,0,0,0,14.5,0V46.34a.92.92,0,1,1,1.83,0v6.27A9.09,9.09,0,0,1,49.78,61.69Z"/><path class="cls-6" d="M57.83,27.35a.92.92,0,0,1-.91-.76A7.25,7.25,0,0,0,43.61,24a.92.92,0,1,1-1.56-1,9.09,9.09,0,0,1,16.68,3.23A.92.92,0,0,1,58,27.34Z"/></svg>